<?xml version="1.0" encoding="UTF-8" standalone="no"?>
<!-- Created with Inkscape (http://www.inkscape.org/) -->

<svg
   xmlns:dc="http://purl.org/dc/elements/1.1/"
   xmlns:cc="http://creativecommons.org/ns#"
   xmlns:rdf="http://www.w3.org/1999/02/22-rdf-syntax-ns#"
   xmlns:svg="http://www.w3.org/2000/svg"
   xmlns="http://www.w3.org/2000/svg"
   xmlns:sodipodi="http://sodipodi.sourceforge.net/DTD/sodipodi-0.dtd"
   xmlns:inkscape="http://www.inkscape.org/namespaces/inkscape"
   width="888.47003"
   height="220.56691"
   viewBox="0 0 235.07436 58.35833"
   version="1.1"
   id="svg4528"
   inkscape:version="0.92.4 5da689c313, 2019-01-14"
   sodipodi:docname="alabs-logo.svg">
  <defs
     id="defs4522" />
  <sodipodi:namedview
     id="base"
     pagecolor="#ffffff"
     bordercolor="#666666"
     borderopacity="1.0"
     inkscape:pageopacity="0.0"
     inkscape:pageshadow="2"
     inkscape:zoom="0.55166016"
     inkscape:cx="268.3746"
     inkscape:cy="28.725284"
     inkscape:document-units="px"
     inkscape:current-layer="g5899"
     showgrid="false"
     units="px"
     inkscape:window-width="1920"
     inkscape:window-height="1052"
     inkscape:window-x="0"
     inkscape:window-y="0"
     inkscape:window-maximized="1"
     fit-margin-top="0"
     fit-margin-left="0"
     fit-margin-right="0"
     fit-margin-bottom="0" />
  <metadata
     id="metadata4525">
    <rdf:RDF>
      <cc:Work
         rdf:about="">
        <dc:format>image/svg+xml</dc:format>
        <dc:type
           rdf:resource="http://purl.org/dc/dcmitype/StillImage" />
        <dc:title></dc:title>
      </cc:Work>
    </rdf:RDF>
  </metadata>
  <g
     inkscape:label="Capa 1"
     inkscape:groupmode="layer"
     id="layer1"
     transform="translate(-14.754447,-187.38789)">
    <g
       id="g5899"
       transform="matrix(7.9342661,0,0,7.9342661,-1548.5068,-3479.0509)"
       style="stroke-width:0.12603562">
      <g
         style="fill:#ffffff;stroke-width:0.07701815"
         transform="matrix(1.6364401,0,0,1.6364401,187.56101,56.668287)"
         id="g5889">
        <g
           aria-label="aLabs"
           style="font-style:italic;font-variant:normal;font-weight:800;font-stretch:normal;font-size:5.53919125px;line-height:4.61601639px;font-family:'Fira Sans';-inkscape-font-specification:'Fira Sans, Ultra-Bold Italic';font-variant-ligatures:normal;font-variant-caps:normal;font-variant-numeric:normal;font-feature-settings:normal;text-align:start;letter-spacing:0.14284776px;word-spacing:0px;writing-mode:lr-tb;text-anchor:start;display:inline;fill:#ffffff;fill-opacity:1;stroke:none;stroke-width:0.02037771px;stroke-linecap:butt;stroke-linejoin:miter;stroke-opacity:1"
           id="text5883">
          <path
             d="m 7.5124672,249.09067 c -1.274014,0 -1.7282277,1.11337 -1.7282277,1.96641 0,0.72563 0.3378907,1.19093 0.9638193,1.19093 0.404361,0 0.6757813,-0.21603 0.8807314,-0.50961 0.099705,0.31573 0.3932826,0.46529 0.7311732,0.48745 l 0.2769596,-0.63147 c -0.1495582,-0.0609 -0.1550973,-0.16064 -0.1329406,-0.34897 l 0.2658812,-1.82793 c -0.3988218,-0.22711 -0.8474963,-0.32681 -1.2573964,-0.32681 z m -0.033235,0.68686 c 0.1107839,0 0.1827933,0.0166 0.2769596,0.0443 l -0.1938717,1.33495 c -0.1495582,0.24372 -0.3157339,0.37112 -0.492988,0.37112 -0.1550974,0 -0.2824988,-0.0831 -0.2824988,-0.47083 0,-0.54838 0.171715,-1.27955 0.6923989,-1.27955 z"
             style="letter-spacing:0.04761592px;fill:#ffffff;stroke-width:0.02037771px"
             id="path7693"
             inkscape:connector-curvature="0" />
          <path
             d="M 10.5361,248.29302 H 9.5279674 l -0.5373015,3.84974 h 2.3541561 l 0.216029,-0.79764 h -1.445729 z"
             style="letter-spacing:0.04761592px;fill:#ffffff;stroke-width:0.02037771px"
             id="path7695"
             inkscape:connector-curvature="0" />
          <path
             d="m 13.601277,249.09067 c -1.274014,0 -1.728228,1.11337 -1.728228,1.96641 0,0.72563 0.337891,1.19093 0.96382,1.19093 0.404361,0 0.675781,-0.21603 0.880731,-0.50961 0.09971,0.31573 0.393283,0.46529 0.731173,0.48745 l 0.27696,-0.63147 c -0.149558,-0.0609 -0.155097,-0.16064 -0.132941,-0.34897 l 0.265882,-1.82793 c -0.398822,-0.22711 -0.847497,-0.32681 -1.257397,-0.32681 z m -0.03323,0.68686 c 0.110784,0 0.182793,0.0166 0.27696,0.0443 l -0.193872,1.33495 c -0.149558,0.24372 -0.315734,0.37112 -0.492988,0.37112 -0.155098,0 -0.282499,-0.0831 -0.282499,-0.47083 0,-0.54838 0.171715,-1.27955 0.692399,-1.27955 z"
             style="font-style:italic;font-variant:normal;font-weight:800;font-stretch:normal;font-size:5.53919125px;font-family:'Fira Sans';-inkscape-font-specification:'Fira Sans, Ultra-Bold Italic';font-variant-ligatures:normal;font-variant-caps:normal;font-variant-numeric:normal;font-feature-settings:normal;text-align:start;letter-spacing:0.14284776px;writing-mode:lr-tb;text-anchor:start;fill:#ffffff;fill-opacity:1;stroke-width:0.02037771px"
             id="path7697"
             inkscape:connector-curvature="0" />
          <path
             d="m 17.301757,249.09067 c -0.288038,0 -0.592693,0.13294 -0.797643,0.33789 l 0.210489,-1.50112 -0.980437,0.0997 -0.553919,3.95498 c 0.393282,0.16618 0.803183,0.26589 1.257396,0.26589 1.434651,0 1.767002,-1.1577 1.767002,-2.01073 0,-0.73117 -0.304655,-1.14661 -0.902888,-1.14661 z m -0.393283,0.71455 c 0.166176,0 0.299117,0.0886 0.299117,0.46529 0,0.52069 -0.171715,1.26294 -0.659164,1.26294 -0.132941,0 -0.232646,-0.0277 -0.326812,-0.0609 l 0.188332,-1.35156 c 0.149558,-0.20495 0.315734,-0.31574 0.498527,-0.31574 z"
             style="font-style:italic;font-variant:normal;font-weight:800;font-stretch:normal;font-size:5.53919125px;font-family:'Fira Sans';-inkscape-font-specification:'Fira Sans, Ultra-Bold Italic';font-variant-ligatures:normal;font-variant-caps:normal;font-variant-numeric:normal;font-feature-settings:normal;text-align:start;letter-spacing:0.14284776px;writing-mode:lr-tb;text-anchor:start;fill:#ffffff;fill-opacity:1;stroke-width:0.02037771px"
             id="path7699"
             inkscape:connector-curvature="0" />
          <path
             d="m 19.96511,249.09067 c -0.830879,0 -1.290632,0.44867 -1.290632,0.98043 0,0.44868 0.249264,0.70348 0.742252,0.8752 0.465292,0.16617 0.570536,0.21049 0.570536,0.36558 0,0.14956 -0.149558,0.23819 -0.387743,0.23819 -0.337891,0 -0.598233,-0.13848 -0.792104,-0.3102 l -0.476371,0.50407 c 0.260342,0.29358 0.736713,0.50407 1.262936,0.50407 0.997054,0 1.351562,-0.53731 1.351562,-1.05245 0,-0.46529 -0.265881,-0.73671 -0.74779,-0.89735 -0.465292,-0.1551 -0.559459,-0.19387 -0.559459,-0.32127 0,-0.11633 0.09971,-0.19387 0.332352,-0.19387 0.227107,0 0.47637,0.0775 0.68686,0.21602 l 0.420978,-0.52622 c -0.276959,-0.22711 -0.664703,-0.3822 -1.113377,-0.3822 z"
             style="font-style:italic;font-variant:normal;font-weight:800;font-stretch:normal;font-size:5.53919125px;font-family:'Fira Sans';-inkscape-font-specification:'Fira Sans, Ultra-Bold Italic';font-variant-ligatures:normal;font-variant-caps:normal;font-variant-numeric:normal;font-feature-settings:normal;text-align:start;letter-spacing:0.14284776px;writing-mode:lr-tb;text-anchor:start;fill:#ffffff;fill-opacity:1;stroke-width:0.02037771px"
             id="path7701"
             inkscape:connector-curvature="0" />
        </g>
        <g
           aria-label="*"
           transform="rotate(11.212005)"
           style="font-style:italic;font-variant:normal;font-weight:800;font-stretch:normal;font-size:5.53919125px;line-height:4.61601591px;font-family:'Fira Sans';-inkscape-font-specification:'Fira Sans, Ultra-Bold Italic';font-variant-ligatures:normal;font-variant-caps:normal;font-variant-numeric:normal;font-feature-settings:normal;text-align:start;letter-spacing:0.14284775px;word-spacing:0px;writing-mode:lr-tb;text-anchor:start;display:inline;fill:#ffffff;fill-opacity:1;stroke:none;stroke-width:0.02037771px;stroke-linecap:butt;stroke-linejoin:miter;stroke-opacity:1"
           id="text5887">
          <path
             d="m 71.885274,239.80755 -0.149558,-0.77549 -0.703477,0.35451 0.243724,-0.76995 h -0.864114 l 0.03323,0.77549 -0.637007,-0.34343 -0.348969,0.7644 0.742252,0.11079 -0.61485,0.54284 0.592693,0.49299 0.432057,-0.6924 0.249264,0.68686 0.725634,-0.49299 -0.476371,-0.5373 z"
             style="font-style:italic;font-variant:normal;font-weight:800;font-stretch:normal;font-size:5.53919125px;font-family:'Fira Sans';-inkscape-font-specification:'Fira Sans, Ultra-Bold Italic';font-variant-ligatures:normal;font-variant-caps:normal;font-variant-numeric:normal;font-feature-settings:normal;text-align:start;letter-spacing:0.14284775px;writing-mode:lr-tb;text-anchor:start;fill:#ffffff;fill-opacity:1;stroke-width:0.02037771px"
             id="path7704"
             inkscape:connector-curvature="0" />
        </g>
      </g>
    </g>
  </g>
</svg>
